<?xml version="1.0" encoding="UTF-8" standalone="no"?>
<svg
   xmlns:osb="http://www.openswatchbook.org/uri/2009/osb"
   xmlns:dc="http://purl.org/dc/elements/1.1/"
   xmlns:cc="http://creativecommons.org/ns#"
   xmlns:rdf="http://www.w3.org/1999/02/22-rdf-syntax-ns#"
   xmlns:svg="http://www.w3.org/2000/svg"
   xmlns="http://www.w3.org/2000/svg"
   xmlns:sodipodi="http://sodipodi.sourceforge.net/DTD/sodipodi-0.dtd"
   xmlns:inkscape="http://www.inkscape.org/namespaces/inkscape"
   width="512"
   height="512"
   viewBox="0 0 512 512"
   version="1.1"
   id="svg8"
   inkscape:version="1.0.2 (e86c870879, 2021-01-15, custom)"
   sodipodi:docname="crown.svg"
   inkscape:export-filename="C:\public\Projects\angular_rugaciuni3\src\assets\logo_krown\bitmap_36.png"
   inkscape:export-xdpi="6.7500005"
   inkscape:export-ydpi="6.7500005">
  <defs
     id="defs2">
    <linearGradient
       inkscape:collect="always"
       id="linearGradient920"
       osb:paint="gradient">
      <stop
         style="stop-color:#2c549e;stop-opacity:1;"
         offset="0"
         id="stop916" />
      <stop
         style="stop-color:#2c549e;stop-opacity:0;"
         offset="1"
         id="stop918" />
    </linearGradient>
  </defs>
  <sodipodi:namedview
     id="base"
     pagecolor="#ffffff"
     bordercolor="#666666"
     borderopacity="1.0"
     inkscape:pageopacity="0.0"
     inkscape:pageshadow="2"
     inkscape:zoom="1.4142136"
     inkscape:cx="398.5947"
     inkscape:cy="270.30388"
     inkscape:document-units="px"
     inkscape:current-layer="layer1"
     inkscape:document-rotation="0"
     showgrid="false"
     inkscape:snap-global="false"
     showguides="false"
     inkscape:guide-bbox="true"
     inkscape:window-width="1920"
     inkscape:window-height="1017"
     inkscape:window-x="-8"
     inkscape:window-y="-8"
     inkscape:window-maximized="1"
     units="px"
     scale-x="1">
    <inkscape:grid
       type="xygrid"
       id="grid833" />
    <sodipodi:guide
       position="64,451"
       orientation="1,0"
       id="guide855" />
    <sodipodi:guide
       position="448,449"
       orientation="1,0"
       id="guide857" />
    <sodipodi:guide
       position="61,448"
       orientation="0,-1"
       id="guide859" />
    <sodipodi:guide
       position="61,256"
       orientation="0,-1"
       id="guide863" />
    <sodipodi:guide
       position="133.80357,159.60566"
       orientation="0,-1"
       id="guide865" />
    <sodipodi:guide
       position="49,64"
       orientation="0,-1"
       id="guide867" />
    <sodipodi:guide
       position="256,454"
       orientation="1,0"
       id="guide869" />
  </sodipodi:namedview>
  <metadata
     id="metadata5">
    <rdf:RDF>
      <cc:Work
         rdf:about="">
        <dc:format>image/svg+xml</dc:format>
        <dc:type
           rdf:resource="http://purl.org/dc/dcmitype/StillImage" />
        <dc:title></dc:title>
      </cc:Work>
    </rdf:RDF>
  </metadata>
  <g
     inkscape:label="Layer 1"
     inkscape:groupmode="layer"
     id="layer1">
    <rect
       style="fill:#4b7bd3;fill-opacity:1;stroke:none;stroke-width:1.33574;stroke-opacity:1"
       id="rect867"
       width="512"
       height="512"
       x="0"
       y="0" />
    <path
       style="fill:#000000;fill-opacity:0.12851405;stroke:none;stroke-width:1px;stroke-linecap:butt;stroke-linejoin:miter;stroke-opacity:1"
       d="M 429,99.866455 512,182 c -0.0668,111.22884 0,220 0,326 -0.006,0.99467 0,4 0,4 H 228 L 121.31808,408.80915 173.03571,311.25 l 5,-56.78572 -1.71514,-5.99223 -16.11368,-11.61215 11.18265,-13.16958 -20.72448,-20.0611 203.08494,-21.84351 35.71429,-58.57143 7.58928,-11.51785 z"
       id="path896"
       sodipodi:nodetypes="cccccccccccccccc" />
    <path
       id="rect912"
       style="fill:#eda513;fill-opacity:1;stroke:none;stroke-width:2;stroke-opacity:1;stroke-miterlimit:4;stroke-dasharray:none;opacity:1"
       d="M 256.00586 64.066406 C 256.00586 64.066406 232.13836 78.867086 234.48047 107.57812 C 214.14325 100.39278 197.1598 108.55492 194.56445 123.26562 C 219.78903 112.93937 236.16349 129.44567 236.29297 144.08008 C 236.4224 158.71453 219.30122 181.39918 195.47266 165.49609 C 176.78473 183.37787 157.38854 171.49235 153.74219 154.0332 C 150.09584 136.57407 161.20857 127.09606 175.21094 124.47266 C 168.95313 114.60966 153.08165 108.98568 137.41211 124.47266 C 120.83543 92.298893 83 99.880859 83 99.880859 C 83 99.880859 136.06562 135.79812 150.66602 203.62891 C 194.18916 208.90303 255.9707 209.32422 255.9707 209.32422 C 255.9707 209.32422 317.6897 209.04315 361.25977 203.76172 C 373.03563 133.97977 429.00005 99.867187 429 99.867188 C 429.00005 99.867188 391.1219 92.273471 374.52734 124.49219 C 358.84089 108.98353 342.954 114.61544 336.68945 124.49219 C 350.70695 127.11925 361.83192 136.61216 358.18164 154.0957 C 354.53137 171.57929 335.11434 183.48097 316.40625 165.57422 C 292.55204 181.49953 275.41158 158.78177 275.54102 144.12695 C 275.67045 129.47203 292.06468 112.9445 317.31641 123.28516 C 314.71828 108.55387 297.71651 100.3808 277.35742 107.57617 C 279.70206 78.825084 256.00781 64.066406 256.00781 64.066406 L 256.00586 64.066406 z M 154.2207 218.72852 L 160.20703 236.85938 C 160.20703 236.85938 209.32644 240.9704 255.78711 240.91211 C 302.24782 240.85391 351.79102 236.85937 351.79102 236.85938 L 357.7793 218.72852 C 357.7793 218.72852 308.45576 222.84287 255.78711 222.98047 C 203.1185 223.11817 154.2207 218.72852 154.2207 218.72852 z M 166.83398 247.46289 C 185.58077 289.77854 163.68324 308.75648 141.86133 311.98438 C 143.52694 327.46711 155.62109 328.94336 155.62109 328.94336 C 155.62109 328.94336 152.21799 365.04904 99.953125 337.57812 C 93.954039 352.63995 118.33623 356.87015 125.18359 370.00195 C 106.02534 392.4848 113.85965 413.27638 139.29688 415.64648 C 134.79745 351.6535 166.55715 342.94724 186.66016 331.0957 C 170.76317 291.74416 192.64953 297.13497 194.46094 277.42969 C 198.39456 287.15548 203.82482 282.17334 204.57617 281.41797 L 204.65625 281.49414 C 204.24985 282.74152 191.75905 321.3136 194.46094 341.41797 C 184.20434 352.50133 170.95117 346.86133 170.95117 346.86133 C 170.95117 346.86133 162.63163 363.22826 173.68555 374.93359 C 173.85345 393.87853 160.26637 389.71079 147.42188 388.34375 C 145.4634 396.32783 156.84971 397.11702 158.9668 404.55469 C 148.98829 414.10388 146.83796 426.41366 164.81641 431.60742 C 168.88491 380.69427 196.49609 362.55859 196.49609 362.55859 L 209.42969 286.38867 L 210.52539 287.17383 L 216.12305 292.59375 L 216.24609 292.71484 C 216.24509 292.72384 211.04342 317.1923 211.63086 329.44727 C 212.21837 341.704 219.82728 340.28881 218.18945 362.26172 C 214.73726 376.2408 202.23848 395.00821 179.66211 398.74219 C 176.89235 410.16829 189.68798 409.14967 188.63867 421.3125 C 195.45144 418.99604 201.25467 404.4753 211.99805 404.98242 C 214.27453 382.56422 230.38477 371.70703 230.38477 371.70703 C 230.38477 371.70703 225.19573 351.90527 230.375 342.56055 C 235.25376 345.2819 260.03711 324.00781 260.03711 324.00781 L 235.84766 375.02734 C 229.81283 410.2726 218.23903 426.45919 183.3418 438.68359 C 207.40216 455.03092 233.375 432.28516 233.375 432.28516 C 233.375 432.28516 243.13679 428.65277 252.24023 439.13867 C 260.43654 433.18466 246.2483 420.44698 246.48047 404.84375 C 246.71264 389.24051 258.48047 351.04102 258.48047 351.04102 C 258.48047 351.04102 265.33777 358.09075 268.01562 382.79883 C 269.63516 396.94914 261.68678 405.76356 266.9668 428.61328 C 276.48033 416.16986 274.43164 404.12891 274.43164 404.12891 C 274.43164 404.12891 283.83434 404.05231 285.45312 399.08008 C 277.24426 394.71134 275.98828 382.28711 275.98828 382.28711 L 275.83008 362.39453 L 268.01562 346.53711 L 281.69922 314.11523 L 282.12891 350.37695 C 282.12891 350.37695 297.99038 371.2296 296.24023 392.61133 C 294.49013 413.99306 272.29102 447.21484 272.29102 447.21484 C 272.29102 447.21484 291.49193 444.38809 304.79297 419.48633 C 311.25167 422.31346 331.69743 429.6027 335.58398 420.76758 C 329.87282 406.32859 317.99128 410.63738 314.79492 405.04688 C 309.73026 396.18857 314.37305 388.14453 314.37305 388.14453 C 314.37305 388.14453 305.23315 385.51917 301.37305 371.2793 C 297.51515 357.03941 297.52344 316.67578 297.52344 316.67578 C 297.52344 316.67578 306.44549 373.23981 334.30078 396.02344 C 346.33314 408.14212 341.57031 448.06641 341.57031 448.06641 C 341.57031 448.06641 364.10322 427.33342 351.83398 404.12891 C 359.23636 404.81389 367.57385 389.52187 363.38086 380.23828 C 342.08209 388.87181 330.02344 370.85352 330.02344 370.85352 C 330.02344 370.85352 347.01762 357.257 343.28125 348.67188 C 311.74797 352.88469 317.4445 333.44686 310.7793 311.98242 C 300.6928 289.23826 317.57031 263.76367 317.57031 263.76367 C 317.57031 263.76367 319.17919 319.54586 347.55664 342.69922 C 375.93404 365.85263 380.71202 365.66411 371.50586 406.6875 C 388.81366 393.53297 384.42642 381.03931 383.9082 363.17578 C 391.51518 365.78893 411.69522 360.27936 412.98633 334.16797 C 375.36194 351.99626 350.97847 326.91406 350.97852 326.91406 C 350.97852 326.91406 374.64216 323.1584 374.92773 310.70312 C 350.83763 310.61913 345.59956 303.74733 338.88281 290.1875 C 332.16601 276.6277 341.42383 247.46289 341.42383 247.46289 C 341.42383 247.46289 282.81944 249.27344 254.72656 249.27344 C 226.94052 249.27344 166.83398 247.46289 166.83398 247.46289 z M 213.75391 254.73828 C 232.23879 254.53376 255.63477 257.80273 255.63477 257.80273 C 255.63477 257.80273 249.84939 273.2553 227.81641 267.75586 C 221.81015 276.43395 241.98398 298.82584 228.41992 301.54102 C 222.11324 281.63249 193.5531 263.21121 194.24805 257.80273 C 197.96159 255.64126 205.35173 254.83114 213.75391 254.73828 z M 298.57422 259.00977 C 303.80559 276.34077 287.3351 285.80873 285.87305 303.35156 C 265.36043 301.89042 229.02539 334.72266 229.02539 334.72266 C 229.02539 334.72266 215.14153 315.30166 220.86133 308.78125 C 236.25764 316.13676 245.35352 313.00391 245.35352 313.00391 C 245.35352 313.00391 250.01534 295.73348 240.81641 281.33008 C 253.69202 263.00521 258.28592 297.33879 266.21875 293.0957 C 289.57347 276.78662 270.14844 267.45508 270.14844 267.45508 C 270.14844 267.45508 284.57348 271.24056 298.57422 259.00977 z " />
  </g>
</svg>
