<?xml version="1.0" encoding="UTF-8" standalone="no"?>
<svg
   xmlns:osb="http://www.openswatchbook.org/uri/2009/osb"
   xmlns:dc="http://purl.org/dc/elements/1.1/"
   xmlns:cc="http://creativecommons.org/ns#"
   xmlns:rdf="http://www.w3.org/1999/02/22-rdf-syntax-ns#"
   xmlns:svg="http://www.w3.org/2000/svg"
   xmlns="http://www.w3.org/2000/svg"
   xmlns:sodipodi="http://sodipodi.sourceforge.net/DTD/sodipodi-0.dtd"
   xmlns:inkscape="http://www.inkscape.org/namespaces/inkscape"
   width="128"
   height="128"
   viewBox="0 0 128 128"
   version="1.1"
   id="svg8"
   inkscape:version="1.0.2 (e86c870879, 2021-01-15, custom)"
   sodipodi:docname="ic_launcher_no-text_128.svg"
   inkscape:export-filename="C:\public\Projects\angular_rugaciuni3\src\assets\logo_krown\ic_launcher_monochrome.png"
   inkscape:export-xdpi="96.000008"
   inkscape:export-ydpi="96.000008">
  <defs
     id="defs2">
    <linearGradient
       id="linearGradient920"
       osb:paint="gradient">
      <stop
         style="stop-color:#2c549e;stop-opacity:1;"
         offset="0"
         id="stop916" />
      <stop
         style="stop-color:#2c549e;stop-opacity:0;"
         offset="1"
         id="stop918" />
    </linearGradient>
  </defs>
  <sodipodi:namedview
     id="base"
     pagecolor="#ffffff"
     bordercolor="#666666"
     borderopacity="1.0"
     inkscape:pageopacity="0.0"
     inkscape:pageshadow="2"
     inkscape:zoom="8.0000002"
     inkscape:cx="58.482014"
     inkscape:cy="46.528854"
     inkscape:document-units="px"
     inkscape:current-layer="layer1"
     inkscape:document-rotation="0"
     showgrid="false"
     inkscape:snap-global="false"
     showguides="false"
     inkscape:guide-bbox="true"
     inkscape:window-width="1920"
     inkscape:window-height="1017"
     inkscape:window-x="-8"
     inkscape:window-y="-8"
     inkscape:window-maximized="1"
     units="px"
     scale-x="1">
    <inkscape:grid
       type="xygrid"
       id="grid833" />
    <sodipodi:guide
       position="64,451"
       orientation="1,0"
       id="guide855" />
    <sodipodi:guide
       position="448,449"
       orientation="1,0"
       id="guide857" />
    <sodipodi:guide
       position="61,448"
       orientation="0,-1"
       id="guide859" />
    <sodipodi:guide
       position="61,256"
       orientation="0,-1"
       id="guide863" />
    <sodipodi:guide
       position="133.80357,159.60566"
       orientation="0,-1"
       id="guide865" />
    <sodipodi:guide
       position="49,64"
       orientation="0,-1"
       id="guide867" />
    <sodipodi:guide
       position="256,454"
       orientation="1,0"
       id="guide869" />
  </sodipodi:namedview>
  <metadata
     id="metadata5">
    <rdf:RDF>
      <cc:Work
         rdf:about="">
        <dc:format>image/svg+xml</dc:format>
        <dc:type
           rdf:resource="http://purl.org/dc/dcmitype/StillImage" />
        <dc:title></dc:title>
      </cc:Work>
    </rdf:RDF>
  </metadata>
  <g
     inkscape:label="Layer 1"
     inkscape:groupmode="layer"
     id="layer1">
    <path
       id="rect912"
       style="opacity:1;fill:#eda513;fill-opacity:1;stroke:none;stroke-width:0.649592;stroke-miterlimit:4;stroke-dasharray:none;stroke-opacity:1"
       d="m 64.499389,1.4660109 c 0,0 -7.752077,4.8072065 -6.991368,14.1324441 -6.605454,-2.333772 -12.121616,0.317262 -12.964576,5.095243 8.192851,-3.353928 13.511214,2.007257 13.553269,6.76046 0.04204,4.753215 -5.518857,12.121105 -13.258286,6.95584 -6.06977,5.807936 -12.369581,1.947562 -13.553903,-3.723103 -1.18432,-5.670661 2.425053,-8.749084 6.972971,-9.601155 -2.032513,-3.203466 -7.187512,-5.030114 -12.27692,0 C 20.596531,10.635819 8.3077221,13.098414 8.3077221,13.098414 c 0,0 17.2355189,11.665794 21.9776749,33.696984 14.136155,1.713014 34.202572,1.849815 34.202572,1.849815 0,0 20.046104,-0.09129 34.197503,-1.80668 3.824758,-22.664919 22.001798,-33.74456 22.001778,-33.744559 2e-5,0 -12.30267,-2.466412 -17.69252,7.998109 -5.094902,-5.037156 -10.254905,-3.207931 -12.289608,0 4.552832,0.85326 8.166181,3.936522 6.980584,9.615112 -1.185595,5.678604 -7.492174,9.544225 -13.568493,3.728179 C 76.369454,39.607856 70.802295,32.229213 70.844336,27.469381 70.886375,22.709517 76.211161,17.341436 84.41283,20.700044 83.568966,15.915376 78.046855,13.260793 71.434296,15.597822 72.195827,6.2595753 64.500022,1.4660109 64.500022,1.4660109 Z m -33.059445,50.2336841 1.944338,5.888836 c 0,0 15.953803,1.335245 31.044057,1.316313 15.090268,-0.01891 31.181717,-1.316316 31.181717,-1.316313 l 1.944971,-5.888836 c 0,0 -16.020104,1.336325 -33.126688,1.381018 -17.10657,0.04473 -32.988395,-1.381018 -32.988395,-1.381018 z m 4.096746,9.332817 c 6.088888,13.743968 -1.023348,19.907933 -8.111024,20.956343 0.540983,5.028734 4.469119,5.508215 4.469119,5.508215 0,0 -1.105314,11.726988 -18.08075,2.804538 -1.948481,4.892027 5.970765,6.26598 8.194762,10.531132 -6.222529,7.30235 -3.677974,14.05538 4.583945,14.82518 -1.461398,-20.784681 8.854035,-23.612442 15.383418,-27.461778 -5.163283,-12.781236 1.945326,-11.03032 2.533665,-17.430523 1.277625,3.158901 3.041354,1.54072 3.285389,1.295379 l 0.02602,0.02475 c -0.131996,0.405144 -4.188962,12.933214 -3.311399,19.46304 -3.331306,3.599834 -7.635886,1.767983 -7.635886,1.767983 0,0 -2.702155,5.31592 0.888116,9.117759 0.05453,6.15325 -4.358499,4.79959 -8.530343,4.35557 -0.636107,2.59321 3.062125,2.84954 3.749748,5.26526 -3.240984,3.10154 -3.939403,7.09972 1.899932,8.78663 1.321434,-16.5364 10.289443,-22.426809 10.289443,-22.426809 l 4.200785,-24.739707 0.355879,0.255017 1.8181,1.76037 0.03996,0.03933 c -3.25e-4,0.003 -1.689808,7.950189 -1.499009,11.930558 0.19082,3.980941 2.662166,3.521292 2.130205,10.658012 -1.121258,4.540349 -5.180816,10.635939 -12.513537,11.848719 -0.899609,3.71116 3.256365,3.38031 2.915552,7.33075 2.212764,-0.75237 4.097631,-5.46865 7.587042,-5.30394 0.739392,-7.28136 5.971938,-10.80773 5.971938,-10.80773 0,0 -1.685381,-6.431535 -0.0033,-9.466667 1.584603,0.883886 9.634143,-6.025861 9.634143,-6.025861 L 57.95196,102.46499 c -1.960091,11.44753 -5.719219,16.70487 -17.053711,20.67531 7.814717,5.30955 16.250599,-2.07818 16.250599,-2.07818 0,0 3.170594,-1.17979 6.127358,2.22599 2.662131,-1.93384 -1.946158,-6.07099 -1.870749,-11.13886 0.07541,-5.06787 3.897556,-17.474931 3.897556,-17.474931 0,0 2.227225,2.289726 3.096982,10.314821 0.52602,4.59597 -2.055585,7.45886 -0.340653,14.88037 3.089959,-4.04159 2.424552,-7.95244 2.424552,-7.95244 0,0 3.053963,-0.0248 3.579737,-1.63984 -2.666208,-1.41896 -3.074146,-5.45429 -3.074146,-5.45429 l -0.05138,-6.461037 -2.538107,-5.150437 4.444382,-10.530507 0.139562,11.777672 c 0,0 5.151747,6.772869 4.583305,13.717579 -0.568426,6.9447 -7.778615,17.73501 -7.778615,17.73501 0,0 6.236384,-0.91812 10.556514,-9.00612 2.097761,0.91825 8.738469,3.28576 10.000806,0.41615 -1.854964,-4.68973 -5.714044,-3.29025 -6.75221,-5.10602 -1.644983,-2.87715 -0.137022,-5.48983 -0.137022,-5.48983 0,0 -2.968606,-0.8527 -4.222352,-5.47776 -1.253032,-4.625066 -1.25034,-17.735024 -1.25034,-17.735024 0,0 2.89785,18.371784 11.945146,25.771834 3.908066,3.93609 2.361116,16.90336 2.361116,16.90336 0,0 7.318606,-6.734 3.333602,-14.27074 2.404266,0.22247 5.112248,-4.74432 3.750384,-7.75959 -6.917762,2.80414 -10.834367,-3.04813 -10.834367,-3.04813 0,0 5.519648,-4.416104 4.306088,-7.204519 -10.241893,1.368306 -8.391681,-4.94503 -10.556513,-11.916601 -3.276059,-7.38722 2.205694,-15.661273 2.205694,-15.661273 0,0 0.522558,18.11785 9.73945,25.637976 9.216872,7.520145 10.768742,7.458915 7.778622,20.783157 5.6215,-4.27254 4.19654,-8.33044 4.02823,-14.132442 2.47072,0.848741 9.02512,-0.94075 9.44447,-9.421633 -12.22026,5.790563 -20.139924,-2.356044 -20.139908,-2.356044 0,0 7.685858,-1.219825 7.778618,-5.265254 -7.82433,-0.02728 -9.525635,-2.259217 -11.707211,-6.6634 -2.181592,-4.404173 0.825314,-13.876797 0.825314,-13.876797 0,0 -19.034491,0.588061 -28.158954,0.588061 -9.024804,0 -28.547187,-0.588061 -28.547187,-0.588061 z m 15.23942,2.363021 c 6.003822,-0.06643 13.60275,0.995322 13.60275,0.995322 0,0 -1.87907,5.018938 -9.035301,3.23274 -1.950811,2.818611 4.601574,10.091415 0.196018,10.973295 C 53.49119,72.130673 44.214962,66.147509 44.440679,64.390855 c 1.206144,-0.702038 3.606435,-0.965161 6.335431,-0.995322 z m 27.549326,1.387364 c 1.699129,5.629045 -3.650426,8.704204 -4.125294,14.402051 -6.662424,-0.474574 -18.463911,10.189217 -18.463911,10.189217 0,0 -4.509426,-6.307869 -2.651657,-8.425675 5.000666,2.389043 7.954973,1.371505 7.954973,1.371505 0,0 1.514143,-5.609372 -1.473636,-10.287544 4.181951,-5.95185 5.674033,5.199571 8.250586,3.821431 7.585528,-5.29713 1.276349,-8.32798 1.276349,-8.32798 0,0 4.685201,1.229511 9.23259,-2.743005 z" />
  </g>
</svg>
