<?xml version="1.0" encoding="UTF-8" standalone="no"?>
<svg
   xmlns:dc="http://purl.org/dc/elements/1.1/"
   xmlns:cc="http://creativecommons.org/ns#"
   xmlns:rdf="http://www.w3.org/1999/02/22-rdf-syntax-ns#"
   xmlns:svg="http://www.w3.org/2000/svg"
   xmlns="http://www.w3.org/2000/svg"
   xmlns:sodipodi="http://sodipodi.sourceforge.net/DTD/sodipodi-0.dtd"
   xmlns:inkscape="http://www.inkscape.org/namespaces/inkscape"
   width="128"
   height="128"
   viewBox="0 0 33.866666 33.866668"
   version="1.1"
   id="svg8"
   sodipodi:docname="crown-eagle.svg"
   inkscape:version="1.0.2 (e86c870879, 2021-01-15, custom)">
  <defs
     id="defs2" />
  <sodipodi:namedview
     id="base"
     pagecolor="#ffffff"
     bordercolor="#666666"
     borderopacity="1.0"
     inkscape:pageopacity="0.0"
     inkscape:pageshadow="2"
     inkscape:zoom="5.6"
     inkscape:cx="31.621897"
     inkscape:cy="69.276389"
     inkscape:document-units="px"
     inkscape:current-layer="layer1"
     inkscape:document-rotation="0"
     showgrid="false"
     units="px"
     showguides="true"
     inkscape:guide-bbox="true"
     inkscape:snap-nodes="false"
     inkscape:window-width="1920"
     inkscape:window-height="1017"
     inkscape:window-x="-8"
     inkscape:window-y="-8"
     inkscape:window-maximized="1">
    <sodipodi:guide
       position="1.842634,32.543751"
       orientation="1,0"
       id="guide941" />
    <sodipodi:guide
       position="31.702753,32.543751"
       orientation="1,0"
       id="guide943" />
    <sodipodi:guide
       position="19.749256,31.976786"
       orientation="0,-1"
       id="guide945" />
    <sodipodi:guide
       position="22.158854,2.1639137"
       orientation="0,-1"
       id="guide947" />
  </sodipodi:namedview>
  <metadata
     id="metadata5">
    <rdf:RDF>
      <cc:Work
         rdf:about="">
        <dc:format>image/svg+xml</dc:format>
        <dc:type
           rdf:resource="http://purl.org/dc/dcmitype/StillImage" />
        <dc:title></dc:title>
      </cc:Work>
    </rdf:RDF>
  </metadata>
  <g
     inkscape:label="Layer 1"
     inkscape:groupmode="layer"
     id="layer1">
    <path
       style="fill:#121441;fill-opacity:1;stroke:none;stroke-width:0.0433423px;stroke-linecap:butt;stroke-linejoin:miter;stroke-opacity:1"
       d="M 11.216153,7.9950221 C 11.300003,7.3387504 14.081903,6.2540252 14.41227,7.6228714 16.248875,7.1006247 14.786424,5.4413404 13.558512,5.7402281 14.671256,5.0909376 13.053473,4.2382966 11.613357,4.0711436 10.296167,3.9182577 8.6371457,3.9395109 7.9981435,3.6824541 7.8574143,3.9073719 8.720554,4.5362114 8.720554,4.5362114 c 0,0 -2.6203403,0.6267377 -3.6777249,1.7950799 2.9531448,0.095585 1.6706622,0.9037791 6.1733239,1.6637308 z"
       id="path911"
       sodipodi:nodetypes="cccscccc" />
    <path
       style="fill:#121441;fill-opacity:1;stroke:none;stroke-width:0.0433423px;stroke-linecap:butt;stroke-linejoin:miter;stroke-opacity:1"
       d="m 15.332844,9.8154243 c 0,0 4.608263,1.3433617 10.219517,0.7121247 3.906587,-0.439471 5.854414,-4.1148396 5.854414,-4.1148396 0,0 -0.72031,5.8757536 -5.506297,6.0561206 C 21.941896,12.618015 15.332844,9.8154243 15.332844,9.8154243 Z"
       id="path847"
       sodipodi:nodetypes="cscsc" />
    <path
       style="fill:#5a9fc8;fill-opacity:1;stroke:none;stroke-width:0.0433423px;stroke-linecap:butt;stroke-linejoin:miter;stroke-opacity:1"
       d="m 2.5045925,8.6770809 c 0,0 2.0471563,-6.0598349 14.7698685,2.8931911 7.790736,5.482374 12.501333,0.457229 12.501333,0.457229 0,0 -4.563398,9.925945 -15.037324,0.829693 C 5.5251418,4.8557298 2.5045925,8.6770809 2.5045925,8.6770809 Z"
       id="path849"
       sodipodi:nodetypes="cscsc" />
    <path
       style="fill:#121441;fill-opacity:1;stroke:none;stroke-width:0.0433423px;stroke-linecap:butt;stroke-linejoin:miter;stroke-opacity:1"
       d="m 1.9873619,9.9841573 c 0,0 2.2880519,-5.5105996 10.1739821,3.0516097 6.453753,7.007213 12.80426,4.695452 12.80426,4.695452 0,0 -8.786423,6.263393 -15.4095029,-4.082471 C 4.8268133,6.2611643 1.9873619,9.9841573 1.9873619,9.9841573 Z"
       id="path849-5"
       sodipodi:nodetypes="cscsc" />
    <path
       style="fill:#5a9fc8;fill-opacity:1;stroke:none;stroke-width:0.0291739px;stroke-linecap:butt;stroke-linejoin:miter;stroke-opacity:1"
       d="m 1.8722661,10.926938 c 0,0 2.4329015,-3.9938362 6.2260867,3.677607 2.9187062,5.902871 8.6409802,6.71556 8.6409802,6.71556 0,0 -7.9492349,1.747008 -10.3608412,-6.497853 C 4.5490074,8.5675609 1.8722661,10.926938 1.8722661,10.926938 Z"
       id="path849-5-8"
       sodipodi:nodetypes="cscsc" />
    <path
       style="fill:#121441;fill-opacity:1;stroke:none;stroke-width:0.0186766px;stroke-linecap:butt;stroke-linejoin:miter;stroke-opacity:1"
       d="m 1.8875627,11.800974 c 0,0 2.9067652,-1.702481 3.3007772,3.625453 0.2975507,4.023573 1.8793529,5.263047 1.8793529,5.263047 0,0 -4.1263512,-0.536348 -3.537,-5.766196 C 3.9325526,11.35722 1.8875627,11.800974 1.8875627,11.800974 Z"
       id="path849-5-8-5"
       sodipodi:nodetypes="cscsc" />
    <text
       xml:space="preserve"
       style="font-style:normal;font-weight:normal;font-size:6.49704px;line-height:1.25;font-family:sans-serif;fill:#000000;fill-opacity:1;stroke:none;stroke-width:0.162427"
       x="8.0667315"
       y="26.976446"
       id="text953"><tspan
         sodipodi:role="line"
         id="tspan951"
         x="8.0667315"
         y="26.976446"
         style="font-style:normal;font-variant:normal;font-weight:600;font-stretch:normal;font-family:'Segoe UI';-inkscape-font-specification:'Segoe UI Semi-Bold';stroke-width:0.162427">CROWN</tspan></text>
    <text
       xml:space="preserve"
       style="font-style:normal;font-weight:normal;font-size:4.87063px;line-height:1.25;font-family:sans-serif;fill:#000000;fill-opacity:1;stroke:none;stroke-width:0.121765"
       x="17.403646"
       y="33.760288"
       id="text957"
       transform="scale(1.100419,0.90874475)"><tspan
         sodipodi:role="line"
         id="tspan955"
         x="17.403646"
         y="33.760288"
         style="font-style:normal;font-variant:normal;font-weight:normal;font-stretch:normal;font-family:'Segoe UI Symbol';-inkscape-font-specification:'Segoe UI Symbol';stroke-width:0.121765">Eagle</tspan></text>
  </g>
</svg>
