<?xml version="1.0" encoding="UTF-8" standalone="no"?>
<svg
   xmlns:dc="http://purl.org/dc/elements/1.1/"
   xmlns:cc="http://creativecommons.org/ns#"
   xmlns:rdf="http://www.w3.org/1999/02/22-rdf-syntax-ns#"
   xmlns:svg="http://www.w3.org/2000/svg"
   xmlns="http://www.w3.org/2000/svg"
   xmlns:sodipodi="http://sodipodi.sourceforge.net/DTD/sodipodi-0.dtd"
   xmlns:inkscape="http://www.inkscape.org/namespaces/inkscape"
   width="128"
   height="80"
   viewBox="0 0 33.866666 21.166667"
   version="1.1"
   id="svg8"
   sodipodi:docname="crown-eagle-no-text_icon.svg"
   inkscape:version="1.0.2 (e86c870879, 2021-01-15, custom)">
  <defs
     id="defs2" />
  <sodipodi:namedview
     id="base"
     pagecolor="#ffffff"
     bordercolor="#666666"
     borderopacity="1.0"
     inkscape:pageopacity="0.0"
     inkscape:pageshadow="2"
     inkscape:zoom="5.6"
     inkscape:cx="77.368579"
     inkscape:cy="68.603119"
     inkscape:document-units="px"
     inkscape:current-layer="layer1"
     inkscape:document-rotation="0"
     showgrid="false"
     units="px"
     showguides="true"
     inkscape:guide-bbox="true"
     inkscape:snap-nodes="false"
     inkscape:window-width="1920"
     inkscape:window-height="1017"
     inkscape:window-x="-8"
     inkscape:window-y="-8"
     inkscape:window-maximized="1">
    <sodipodi:guide
       position="1.842634,32.543751"
       orientation="1,0"
       id="guide941" />
    <sodipodi:guide
       position="31.702753,32.543751"
       orientation="1,0"
       id="guide943" />
    <sodipodi:guide
       position="19.749256,31.976786"
       orientation="0,-1"
       id="guide945" />
    <sodipodi:guide
       position="22.158854,2.1639137"
       orientation="0,-1"
       id="guide947" />
    <sodipodi:guide
       position="2.3859747,17.046726"
       orientation="0,-1"
       id="guide961" />
  </sodipodi:namedview>
  <metadata
     id="metadata5">
    <rdf:RDF>
      <cc:Work
         rdf:about="">
        <dc:format>image/svg+xml</dc:format>
        <dc:type
           rdf:resource="http://purl.org/dc/dcmitype/StillImage" />
        <dc:title></dc:title>
      </cc:Work>
    </rdf:RDF>
  </metadata>
  <g
     inkscape:label="Layer 1"
     inkscape:groupmode="layer"
     id="layer1">
    <path
       style="opacity:0.98;fill:#121441;fill-opacity:1;stroke:none;stroke-width:0.0490278px;stroke-linecap:butt;stroke-linejoin:miter;stroke-opacity:1"
       d="M 10.873256,5.3148831 C 10.968106,4.5725243 14.114928,3.3455069 14.488631,4.8939155 16.566157,4.3031615 14.911866,2.4262166 13.52288,2.7643116 14.78159,2.029849 12.951591,1.0653608 11.322565,0.87628115 9.8325898,0.70334009 7.9559428,0.72738123 7.2331181,0.43660442 7.0739284,0.69102632 8.0502924,1.4023553 8.0502924,1.4023553 c 0,0 -2.9640694,0.7089514 -4.1601588,2.0305531 3.3405302,0.1081179 1.8898151,1.0223354 6.9831224,1.8819747 z"
       id="path911"
       sodipodi:nodetypes="cccscccc" />
    <path
       style="opacity:0.98;fill:#121441;fill-opacity:1;stroke:none;stroke-width:0.0490278px;stroke-linecap:butt;stroke-linejoin:miter;stroke-opacity:1"
       d="m 15.529964,7.3740804 c 0,0 5.212762,1.5195806 11.560085,0.8055396 4.419042,-0.4971196 6.62238,-4.6546123 6.62238,-4.6546123 0,0 -0.814798,6.6465183 -6.228598,6.8505453 C 23.005973,10.544308 15.529964,7.3740804 15.529964,7.3740804 Z"
       id="path847"
       sodipodi:nodetypes="cscsc" />
    <path
       style="opacity:0.98;fill:#5a9fc8;fill-opacity:1;stroke:none;stroke-width:0.0490278px;stroke-linecap:butt;stroke-linejoin:miter;stroke-opacity:1"
       d="m 1.018938,6.0864127 c 0,0 2.3156967,-6.85474746 16.707339,3.2727119 8.812703,6.2015374 14.141223,0.517207 14.141223,0.517207 0,0 -5.162012,11.2280034 -17.009879,0.9385304 C 4.4357148,1.7637872 1.018938,6.0864127 1.018938,6.0864127 Z"
       id="path849"
       sodipodi:nodetypes="cscsc" />
    <path
       style="opacity:0.98;fill:#121441;fill-opacity:1;stroke:none;stroke-width:0.0490278px;stroke-linecap:butt;stroke-linejoin:miter;stroke-opacity:1"
       d="m 0.43385855,7.5649474 c 0,0 2.58819235,-6.2334645 11.50857645,3.4519116 7.300339,7.9264 14.483888,5.311389 14.483888,5.311389 0,0 -9.939002,7.085008 -17.4308792,-4.617998 C 3.6457814,3.3535823 0.43385855,7.5649474 0.43385855,7.5649474 Z"
       id="path849-5"
       sodipodi:nodetypes="cscsc" />
    <path
       style="opacity:0.98;fill:#5a9fc8;fill-opacity:1;stroke:none;stroke-width:0.0330009px;stroke-linecap:butt;stroke-linejoin:miter;stroke-opacity:1"
       d="m 0.30366482,8.6313998 c 0,0 2.75204288,-4.5177365 7.04280768,4.1600252 3.3015735,6.677194 9.7744795,7.596489 9.7744795,7.596489 0,0 -8.9919929,1.976176 -11.7199471,-7.350223 C 3.3315337,5.9625262 0.30366482,8.6313998 0.30366482,8.6313998 Z"
       id="path849-5-8"
       sodipodi:nodetypes="cscsc" />
    <path
       style="opacity:0.98;fill:#121441;fill-opacity:1;stroke:none;stroke-width:0.0211265px;stroke-linecap:butt;stroke-linejoin:miter;stroke-opacity:1"
       d="m 0.32096795,9.6200895 c 0,0 3.28806675,-1.9258078 3.73376415,4.1010305 0.3365826,4.551374 2.1258813,5.953439 2.1258813,5.953439 0,0 -4.6676347,-0.606705 -4.000974,-6.52259 C 2.6342141,9.118125 0.32096795,9.6200895 0.32096795,9.6200895 Z"
       id="path849-5-8-5"
       sodipodi:nodetypes="cscsc" />
  </g>
</svg>
