<?xml version="1.0" encoding="UTF-8" standalone="no"?>
<svg
   xmlns:dc="http://purl.org/dc/elements/1.1/"
   xmlns:cc="http://creativecommons.org/ns#"
   xmlns:rdf="http://www.w3.org/1999/02/22-rdf-syntax-ns#"
   xmlns:svg="http://www.w3.org/2000/svg"
   xmlns="http://www.w3.org/2000/svg"
   xmlns:sodipodi="http://sodipodi.sourceforge.net/DTD/sodipodi-0.dtd"
   xmlns:inkscape="http://www.inkscape.org/namespaces/inkscape"
   width="128"
   height="128"
   viewBox="0 0 33.866666 33.866668"
   version="1.1"
   id="svg8"
   sodipodi:docname="crown-eagle-no-text.svg"
   inkscape:version="1.0.2 (e86c870879, 2021-01-15, custom)">
  <defs
     id="defs2" />
  <sodipodi:namedview
     id="base"
     pagecolor="#ffffff"
     bordercolor="#666666"
     borderopacity="1.0"
     inkscape:pageopacity="0.0"
     inkscape:pageshadow="2"
     inkscape:zoom="5.6"
     inkscape:cx="77.368579"
     inkscape:cy="68.603119"
     inkscape:document-units="px"
     inkscape:current-layer="layer1"
     inkscape:document-rotation="0"
     showgrid="false"
     units="px"
     showguides="true"
     inkscape:guide-bbox="true"
     inkscape:snap-nodes="false"
     inkscape:window-width="1920"
     inkscape:window-height="1017"
     inkscape:window-x="-8"
     inkscape:window-y="-8"
     inkscape:window-maximized="1">
    <sodipodi:guide
       position="1.842634,32.543751"
       orientation="1,0"
       id="guide941" />
    <sodipodi:guide
       position="31.702753,32.543751"
       orientation="1,0"
       id="guide943" />
    <sodipodi:guide
       position="19.749256,31.976786"
       orientation="0,-1"
       id="guide945" />
    <sodipodi:guide
       position="22.158854,2.1639137"
       orientation="0,-1"
       id="guide947" />
    <sodipodi:guide
       position="2.3859747,17.046726"
       orientation="0,-1"
       id="guide961" />
  </sodipodi:namedview>
  <metadata
     id="metadata5">
    <rdf:RDF>
      <cc:Work
         rdf:about="">
        <dc:format>image/svg+xml</dc:format>
        <dc:type
           rdf:resource="http://purl.org/dc/dcmitype/StillImage" />
        <dc:title></dc:title>
      </cc:Work>
    </rdf:RDF>
  </metadata>
  <g
     inkscape:label="Layer 1"
     inkscape:groupmode="layer"
     id="layer1">
    <path
       style="fill:#121441;fill-opacity:1;stroke:none;stroke-width:0.0433423px;stroke-linecap:butt;stroke-linejoin:miter;stroke-opacity:1"
       d="m 11.348444,12.15276 c 0.08385,-0.656271 2.86575,-1.740997 3.196117,-0.37215 C 16.381166,11.258363 14.918715,9.5990785 13.690803,9.8979662 14.803547,9.2486757 13.185764,8.3960347 11.745648,8.2288817 10.428458,8.0759958 8.7694373,8.097249 8.1304351,7.8401922 7.9897059,8.06511 8.8528456,8.6939495 8.8528456,8.6939495 c 0,0 -2.6203403,0.6267377 -3.6777249,1.7950795 2.9531448,0.09558 1.6706622,0.90378 6.1733233,1.663731 z"
       id="path911"
       sodipodi:nodetypes="cccscccc" />
    <path
       style="fill:#121441;fill-opacity:1;stroke:none;stroke-width:0.0433423px;stroke-linecap:butt;stroke-linejoin:miter;stroke-opacity:1"
       d="m 15.465135,13.973162 c 0,0 4.608263,1.343362 10.219517,0.712125 3.906587,-0.439471 5.854414,-4.114839 5.854414,-4.114839 0,0 -0.72031,5.875753 -5.506297,6.05612 -3.958582,0.149185 -10.567634,-2.653406 -10.567634,-2.653406 z"
       id="path847"
       sodipodi:nodetypes="cscsc" />
    <path
       style="fill:#5a9fc8;fill-opacity:1;stroke:none;stroke-width:0.0433423px;stroke-linecap:butt;stroke-linejoin:miter;stroke-opacity:1"
       d="m 2.6368841,12.834819 c 0,0 2.0471563,-6.0598349 14.7698679,2.893191 7.790736,5.482374 12.501333,0.457229 12.501333,0.457229 0,0 -4.563398,9.925945 -15.037324,0.829693 C 5.6574334,9.0134679 2.6368841,12.834819 2.6368841,12.834819 Z"
       id="path849"
       sodipodi:nodetypes="cscsc" />
    <path
       style="fill:#121441;fill-opacity:1;stroke:none;stroke-width:0.0433423px;stroke-linecap:butt;stroke-linejoin:miter;stroke-opacity:1"
       d="m 2.1196535,14.141895 c 0,0 2.2880519,-5.5105992 10.1739815,3.05161 6.453753,7.007213 12.80426,4.695452 12.80426,4.695452 0,0 -8.786423,6.263393 -15.4095027,-4.082471 C 4.9591049,10.418902 2.1196535,14.141895 2.1196535,14.141895 Z"
       id="path849-5"
       sodipodi:nodetypes="cscsc" />
    <path
       style="fill:#5a9fc8;fill-opacity:1;stroke:none;stroke-width:0.0291739px;stroke-linecap:butt;stroke-linejoin:miter;stroke-opacity:1"
       d="m 2.0045577,15.084676 c 0,0 2.4329015,-3.993836 6.2260867,3.677607 2.9187056,5.902871 8.6409796,6.71556 8.6409796,6.71556 0,0 -7.9492343,1.747008 -10.3608406,-6.497853 C 4.681299,12.725299 2.0045577,15.084676 2.0045577,15.084676 Z"
       id="path849-5-8"
       sodipodi:nodetypes="cscsc" />
    <path
       style="fill:#121441;fill-opacity:1;stroke:none;stroke-width:0.0186766px;stroke-linecap:butt;stroke-linejoin:miter;stroke-opacity:1"
       d="m 2.0198543,15.958712 c 0,0 2.9067652,-1.702481 3.3007772,3.625453 0.2975507,4.023573 1.8793529,5.263047 1.8793529,5.263047 0,0 -4.1263512,-0.536348 -3.537,-5.766196 0.4018598,-3.566058 -1.6431301,-3.122304 -1.6431301,-3.122304 z"
       id="path849-5-8-5"
       sodipodi:nodetypes="cscsc" />
  </g>
</svg>
